<svg xmlns="http://www.w3.org/2000/svg" width="2400" height="600"><path d="M1247,287L1477,488L1407,256Z" fill="#f1f1f1" stroke="#f1f1f1" stroke-width="1.51"/><path d="M1247,287L1141,434L1477,488Z" fill="#f0f0f0" stroke="#f0f0f0" stroke-width="1.51"/><path d="M1477,488L1750,366L1407,256Z" fill="#f0f0f0" stroke="#f0f0f0" stroke-width="1.51"/><path d="M1147,729L1510,557L1477,488Z" fill="#eeeeee" stroke="#eeeeee" stroke-width="1.51"/><path d="M1510,557L1615,535L1477,488Z" fill="#eeeeee" stroke="#eeeeee" stroke-width="1.51"/><path d="M1615,535L1629,512L1477,488Z" fill="#eeeeee" stroke="#eeeeee" stroke-width="1.51"/><path d="M1147,729L1506,754L1510,557Z" fill="#eeeeee" stroke="#eeeeee" stroke-width="1.51"/><path d="M913,280L996,503L1141,434Z" fill="#eeeeee" stroke="#eeeeee" stroke-width="1.51"/><path d="M1510,557L1506,754L1615,535Z" fill="#ededed" stroke="#ededed" stroke-width="1.51"/><path d="M1927,616L1750,366L1629,512Z" fill="#eeeeee" stroke="#eeeeee" stroke-width="1.51"/><path d="M1147,729L1477,488L1141,434Z" fill="#efefef" stroke="#efefef" stroke-width="1.51"/><path d="M996,503L1147,729L1141,434Z" fill="#ededed" stroke="#ededed" stroke-width="1.51"/><path d="M1927,616L1629,512L1615,535Z" fill="#ededed" stroke="#ededed" stroke-width="1.51"/><path d="M1629,512L1750,366L1477,488Z" fill="#efefef" stroke="#efefef" stroke-width="1.51"/><path d="M1407,256L1269,-105L1247,287Z" fill="#e7e7e7" stroke="#e7e7e7" stroke-width="1.51"/><path d="M1750,366L1646,125L1407,256Z" fill="#ededed" stroke="#ededed" stroke-width="1.51"/><path d="M1147,729L1162,811L1506,754Z" fill="#eeeeee" stroke="#eeeeee" stroke-width="1.51"/><path d="M935,863L1162,811L1147,729Z" fill="#ececec" stroke="#ececec" stroke-width="1.51"/><path d="M1247,287L913,280L1141,434Z" fill="#f0f0f0" stroke="#f0f0f0" stroke-width="1.51"/><path d="M977,37L913,280L1247,287Z" fill="#e9e9e9" stroke="#e9e9e9" stroke-width="1.51"/><path d="M1750,366L1778,209L1646,125Z" fill="#ececec" stroke="#ececec" stroke-width="1.51"/><path d="M789,465L966,675L996,503Z" fill="#eaeaea" stroke="#eaeaea" stroke-width="1.51"/><path d="M996,503L966,675L1147,729Z" fill="#ececec" stroke="#ececec" stroke-width="1.51"/><path d="M1646,125L1630,-1L1407,256Z" fill="#e6e6e6" stroke="#e6e6e6" stroke-width="1.51"/><path d="M1896,-44L1630,-1L1646,125Z" fill="#dfdfdf" stroke="#dfdfdf" stroke-width="1.51"/><path d="M1522,-103L1269,-105L1407,256Z" fill="#dfdfdf" stroke="#dfdfdf" stroke-width="1.51"/><path d="M1269,-105L977,37L1247,287Z" fill="#e3e3e3" stroke="#e3e3e3" stroke-width="1.51"/><path d="M1630,-1L1522,-103L1407,256Z" fill="#e1e1e1" stroke="#e1e1e1" stroke-width="1.51"/><path d="M1857,806L1927,616L1615,535Z" fill="#ececec" stroke="#ececec" stroke-width="1.51"/><path d="M1162,811L1560,896L1506,754Z" fill="#eeeeee" stroke="#eeeeee" stroke-width="1.51"/><path d="M913,280L789,465L996,503Z" fill="#ebebeb" stroke="#ebebeb" stroke-width="1.51"/><path d="M664,530L789,465L526,450Z" fill="#e7e7e7" stroke="#e7e7e7" stroke-width="1.51"/><path d="M989,-231L805,-45L977,37Z" fill="#dadada" stroke="#dadada" stroke-width="1.51"/><path d="M1522,-103L1364,-188L1269,-105Z" fill="#dedede" stroke="#dedede" stroke-width="1.51"/><path d="M1857,806L1615,535L1506,754Z" fill="#ededed" stroke="#ededed" stroke-width="1.51"/><path d="M1750,366L2076,476L1778,209Z" fill="#efefef" stroke="#efefef" stroke-width="1.51"/><path d="M1162,811L935,863L1560,896Z" fill="#eeeeee" stroke="#eeeeee" stroke-width="1.51"/><path d="M966,675L935,863L1147,729Z" fill="#ebebeb" stroke="#ebebeb" stroke-width="1.51"/><path d="M729,925L935,863L966,675Z" fill="#e9e9e9" stroke="#e9e9e9" stroke-width="1.51"/><path d="M1560,896L1857,806L1506,754Z" fill="#ededed" stroke="#ededed" stroke-width="1.51"/><path d="M1927,616L1985,558L1750,366Z" fill="#ededed" stroke="#ededed" stroke-width="1.51"/><path d="M2003,756L1985,558L1927,616Z" fill="#ececec" stroke="#ececec" stroke-width="1.51"/><path d="M789,465L664,530L966,675Z" fill="#e8e8e8" stroke="#e8e8e8" stroke-width="1.51"/><path d="M681,92L789,465L913,280Z" fill="#eaeaea" stroke="#eaeaea" stroke-width="1.51"/><path d="M1522,-103L1602,-265L1364,-188Z" fill="#dedede" stroke="#dedede" stroke-width="1.51"/><path d="M1630,-1L1794,-155L1522,-103Z" fill="#dddddd" stroke="#dddddd" stroke-width="1.51"/><path d="M1778,209L1896,-44L1646,125Z" fill="#e3e3e3" stroke="#e3e3e3" stroke-width="1.51"/><path d="M2069,76L1896,-44L1778,209Z" fill="#e2e2e2" stroke="#e2e2e2" stroke-width="1.51"/><path d="M977,37L681,92L913,280Z" fill="#e2e2e2" stroke="#e2e2e2" stroke-width="1.51"/><path d="M989,-231L977,37L1269,-105Z" fill="#dddddd" stroke="#dddddd" stroke-width="1.51"/><path d="M1896,-44L1794,-155L1630,-1Z" fill="#dddddd" stroke="#dddddd" stroke-width="1.51"/><path d="M1794,-155L1602,-265L1522,-103Z" fill="#dddddd" stroke="#dddddd" stroke-width="1.51"/><path d="M1364,-188L1293,-312L1269,-105Z" fill="#dedede" stroke="#dedede" stroke-width="1.51"/><path d="M1602,-265L1293,-312L1364,-188Z" fill="#dedede" stroke="#dedede" stroke-width="1.51"/><path d="M1293,-312L989,-231L1269,-105Z" fill="#dedede" stroke="#dedede" stroke-width="1.51"/><path d="M1985,558L2076,476L1750,366Z" fill="#eeeeee" stroke="#eeeeee" stroke-width="1.51"/><path d="M2243,675L2076,476L1985,558Z" fill="#ececec" stroke="#ececec" stroke-width="1.51"/><path d="M805,-45L681,92L977,37Z" fill="#dadada" stroke="#dadada" stroke-width="1.51"/><path d="M1857,806L2003,756L1927,616Z" fill="#ececec" stroke="#ececec" stroke-width="1.51"/><path d="M2130,131L2069,76L1778,209Z" fill="#e5e5e5" stroke="#e5e5e5" stroke-width="1.51"/><path d="M1896,-44L1987,-156L1794,-155Z" fill="#dddddd" stroke="#dddddd" stroke-width="1.51"/><path d="M935,863L729,925L1560,896Z" fill="#ececec" stroke="#ececec" stroke-width="1.51"/><path d="M664,530L729,925L966,675Z" fill="#e8e8e8" stroke="#e8e8e8" stroke-width="1.51"/><path d="M2076,476L2130,131L1778,209Z" fill="#ededed" stroke="#ededed" stroke-width="1.51"/><path d="M664,530L518,707L729,925Z" fill="#e5e5e5" stroke="#e5e5e5" stroke-width="1.51"/><path d="M681,92L526,450L789,465Z" fill="#e9e9e9" stroke="#e9e9e9" stroke-width="1.51"/><path d="M2343,-106L1987,-156L2069,76Z" fill="#dcdcdc" stroke="#dcdcdc" stroke-width="1.51"/><path d="M2069,76L1987,-156L1896,-44Z" fill="#dcdcdc" stroke="#dcdcdc" stroke-width="1.51"/><path d="M1794,-155L1987,-156L1602,-265Z" fill="#dddddd" stroke="#dddddd" stroke-width="1.51"/><path d="M422,580L518,707L664,530Z" fill="#e4e4e4" stroke="#e4e4e4" stroke-width="1.51"/><path d="M2243,675L2243,383L2076,476Z" fill="#ececec" stroke="#ececec" stroke-width="1.51"/><path d="M2076,476L2243,383L2130,131Z" fill="#eeeeee" stroke="#eeeeee" stroke-width="1.51"/><path d="M805,-45L489,-142L681,92Z" fill="#d6d6d6" stroke="#d6d6d6" stroke-width="1.51"/><path d="M681,92L456,219L526,450Z" fill="#e4e4e4" stroke="#e4e4e4" stroke-width="1.51"/><path d="M989,-231L717,-230L805,-45Z" fill="#d9d9d9" stroke="#d9d9d9" stroke-width="1.51"/><path d="M1293,-312L717,-230L989,-231Z" fill="#dcdcdc" stroke="#dcdcdc" stroke-width="1.51"/><path d="M459,-2L456,219L681,92Z" fill="#dbdbdb" stroke="#dbdbdb" stroke-width="1.51"/><path d="M526,450L422,580L664,530Z" fill="#e5e5e5" stroke="#e5e5e5" stroke-width="1.51"/><path d="M2003,756L2243,675L1985,558Z" fill="#ececec" stroke="#ececec" stroke-width="1.51"/><path d="M2224,899L2243,675L2003,756Z" fill="#ebebeb" stroke="#ebebeb" stroke-width="1.51"/><path d="M456,219L418,300L526,450Z" fill="#e6e6e6" stroke="#e6e6e6" stroke-width="1.51"/><path d="M418,300L422,580L526,450Z" fill="#e4e4e4" stroke="#e4e4e4" stroke-width="1.51"/><path d="M418,300L388,286L422,580Z" fill="#e4e4e4" stroke="#e4e4e4" stroke-width="1.51"/><path d="M456,219L388,286L418,300Z" fill="#e3e3e3" stroke="#e3e3e3" stroke-width="1.51"/><path d="M459,-2L388,286L456,219Z" fill="#dddddd" stroke="#dddddd" stroke-width="1.51"/><path d="M489,-142L459,-2L681,92Z" fill="#d4d4d4" stroke="#d4d4d4" stroke-width="1.51"/><path d="M729,925L2224,899L1560,896Z" fill="#ededed" stroke="#ededed" stroke-width="1.51"/><path d="M1560,896L2224,899L1857,806Z" fill="#ececec" stroke="#ececec" stroke-width="1.51"/><path d="M1857,806L2224,899L2003,756Z" fill="#ececec" stroke="#ececec" stroke-width="1.51"/><path d="M422,580L448,850L518,707Z" fill="#e3e3e3" stroke="#e3e3e3" stroke-width="1.51"/><path d="M518,707L448,850L729,925Z" fill="#e4e4e4" stroke="#e4e4e4" stroke-width="1.51"/><path d="M408,921L448,850L189,733Z" fill="#e1e1e1" stroke="#e1e1e1" stroke-width="1.51"/><path d="M717,-230L489,-142L805,-45Z" fill="#d6d6d6" stroke="#d6d6d6" stroke-width="1.51"/><path d="M459,-2L151,298L388,286Z" fill="#dddddd" stroke="#dddddd" stroke-width="1.51"/><path d="M2243,383L2354,212L2130,131Z" fill="#ebebeb" stroke="#ebebeb" stroke-width="1.51"/><path d="M2130,131L2343,-106L2069,76Z" fill="#dedede" stroke="#dedede" stroke-width="1.51"/><path d="M2507,283L2354,212L2243,383Z" fill="#eeeeee" stroke="#eeeeee" stroke-width="1.51"/><path d="M2415,728L2243,383L2243,675Z" fill="#ebebeb" stroke="#ebebeb" stroke-width="1.51"/><path d="M448,850L408,921L729,925Z" fill="#e4e4e4" stroke="#e4e4e4" stroke-width="1.51"/><path d="M189,733L448,850L422,580Z" fill="#e1e1e1" stroke="#e1e1e1" stroke-width="1.51"/><path d="M2354,212L2343,-106L2130,131Z" fill="#e1e1e1" stroke="#e1e1e1" stroke-width="1.51"/><path d="M1987,-156L2599,-310L1602,-265Z" fill="#dcdcdc" stroke="#dcdcdc" stroke-width="1.51"/><path d="M2224,899L2415,728L2243,675Z" fill="#ebebeb" stroke="#ebebeb" stroke-width="1.51"/><path d="M2354,212L2557,-43L2343,-106Z" fill="#dddddd" stroke="#dddddd" stroke-width="1.51"/><path d="M2343,-106L2340,-135L1987,-156Z" fill="#dcdcdc" stroke="#dcdcdc" stroke-width="1.51"/><path d="M2343,-106L2557,-43L2340,-135Z" fill="#dbdbdb" stroke="#dbdbdb" stroke-width="1.51"/><path d="M2576,347L2507,283L2243,383Z" fill="#eeeeee" stroke="#eeeeee" stroke-width="1.51"/><path d="M388,286L142,486L422,580Z" fill="#e2e2e2" stroke="#e2e2e2" stroke-width="1.51"/><path d="M489,-142L311,-129L459,-2Z" fill="#d2d2d2" stroke="#d2d2d2" stroke-width="1.51"/><path d="M273,-306L311,-129L489,-142Z" fill="#d1d1d1" stroke="#d1d1d1" stroke-width="1.51"/><path d="M2415,728L2576,347L2243,383Z" fill="#ececec" stroke="#ececec" stroke-width="1.51"/><path d="M2224,899L2422,903L2415,728Z" fill="#ebebeb" stroke="#ebebeb" stroke-width="1.51"/><path d="M729,925L2422,903L2224,899Z" fill="#ededed" stroke="#ededed" stroke-width="1.51"/><path d="M311,-129L151,298L459,-2Z" fill="#d4d4d4" stroke="#d4d4d4" stroke-width="1.51"/><path d="M142,486L189,733L422,580Z" fill="#dfdfdf" stroke="#dfdfdf" stroke-width="1.51"/><path d="M151,298L142,486L388,286Z" fill="#e2e2e2" stroke="#e2e2e2" stroke-width="1.51"/><path d="M2606,64L2557,-43L2354,212Z" fill="#e0e0e0" stroke="#e0e0e0" stroke-width="1.51"/><path d="M2730,398L2576,347L2724,633Z" fill="#ececec" stroke="#ececec" stroke-width="1.51"/><path d="M2606,64L2354,212L2507,283Z" fill="#e7e7e7" stroke="#e7e7e7" stroke-width="1.51"/><path d="M1293,-312L273,-306L717,-230Z" fill="#d8d8d8" stroke="#d8d8d8" stroke-width="1.51"/><path d="M717,-230L273,-306L489,-142Z" fill="#d3d3d3" stroke="#d3d3d3" stroke-width="1.51"/><path d="M311,-129L32,-45L151,298Z" fill="#d1d1d1" stroke="#d1d1d1" stroke-width="1.51"/><path d="M2786,190L2606,64L2507,283Z" fill="#e7e7e7" stroke="#e7e7e7" stroke-width="1.51"/><path d="M142,486L92,729L189,733Z" fill="#dddddd" stroke="#dddddd" stroke-width="1.51"/><path d="M189,733L92,729L408,921Z" fill="#dfdfdf" stroke="#dfdfdf" stroke-width="1.51"/><path d="M-45,572L92,729L142,486Z" fill="#dcdcdc" stroke="#dcdcdc" stroke-width="1.51"/><path d="M2576,347L2786,190L2507,283Z" fill="#ededed" stroke="#ededed" stroke-width="1.51"/><path d="M2724,633L2576,347L2415,728Z" fill="#ebebeb" stroke="#ebebeb" stroke-width="1.51"/><path d="M2773,732L2724,633L2415,728Z" fill="#ebebeb" stroke="#ebebeb" stroke-width="1.51"/><path d="M-112,391L-45,572L142,486Z" fill="#dddddd" stroke="#dddddd" stroke-width="1.51"/><path d="M14,-199L32,-45L311,-129Z" fill="#cecece" stroke="#cecece" stroke-width="1.51"/><path d="M-112,391L142,486L151,298Z" fill="#dfdfdf" stroke="#dfdfdf" stroke-width="1.51"/><path d="M2818,-184L2557,-43L2606,64Z" fill="#dbdbdb" stroke="#dbdbdb" stroke-width="1.51"/><path d="M2818,-184L2599,-310L2557,-43Z" fill="#dbdbdb" stroke="#dbdbdb" stroke-width="1.51"/><path d="M2557,-43L2599,-310L2340,-135Z" fill="#dbdbdb" stroke="#dbdbdb" stroke-width="1.51"/><path d="M2340,-135L2599,-310L1987,-156Z" fill="#dcdcdc" stroke="#dcdcdc" stroke-width="1.51"/><path d="M1602,-265L2599,-310L1293,-312Z" fill="#dddddd" stroke="#dddddd" stroke-width="1.51"/><path d="M2730,398L2786,190L2576,347Z" fill="#eeeeee" stroke="#eeeeee" stroke-width="1.51"/><path d="M2773,732L2786,190L2730,398Z" fill="#ededed" stroke="#ededed" stroke-width="1.51"/><path d="M2724,633L2773,732L2730,398Z" fill="#ebebeb" stroke="#ebebeb" stroke-width="1.51"/><path d="M2422,903L2773,732L2415,728Z" fill="#ebebeb" stroke="#ebebeb" stroke-width="1.51"/><path d="M-139,247L-112,391L151,298Z" fill="#dfdfdf" stroke="#dfdfdf" stroke-width="1.51"/><path d="M32,-45L-139,247L151,298Z" fill="#d6d6d6" stroke="#d6d6d6" stroke-width="1.51"/><path d="M273,-306L14,-199L311,-129Z" fill="#cfcfcf" stroke="#cfcfcf" stroke-width="1.51"/><path d="M-134,-9L-139,247L32,-45Z" fill="#d0d0d0" stroke="#d0d0d0" stroke-width="1.51"/><path d="M-45,572L-140,733L92,729Z" fill="#dbdbdb" stroke="#dbdbdb" stroke-width="1.51"/><path d="M92,729L-380,942L408,921Z" fill="#dcdcdc" stroke="#dcdcdc" stroke-width="1.51"/><path d="M-293,493L-140,733L-45,572Z" fill="#dbdbdb" stroke="#dbdbdb" stroke-width="1.51"/><path d="M-293,493L-45,572L-112,391Z" fill="#dddddd" stroke="#dddddd" stroke-width="1.51"/><path d="M14,-199L-134,-9L32,-45Z" fill="#cccccc" stroke="#cccccc" stroke-width="1.51"/><path d="M2786,190L2818,-184L2606,64Z" fill="#dddddd" stroke="#dddddd" stroke-width="1.51"/><path d="M2773,732L2818,-184L2786,190Z" fill="#ebebeb" stroke="#ebebeb" stroke-width="1.51"/><path d="M14,-199L-241,-139L-134,-9Z" fill="#cccccc" stroke="#cccccc" stroke-width="1.51"/><path d="M273,-306L-117,-277L14,-199Z" fill="#cdcdcd" stroke="#cdcdcd" stroke-width="1.51"/><path d="M-306,155L-139,247L-134,-9Z" fill="#d4d4d4" stroke="#d4d4d4" stroke-width="1.51"/><path d="M-306,155L-293,493L-139,247Z" fill="#dfdfdf" stroke="#dfdfdf" stroke-width="1.51"/><path d="M-139,247L-293,493L-112,391Z" fill="#dedede" stroke="#dedede" stroke-width="1.51"/><path d="M-400,26L-306,155L-134,-9Z" fill="#cfcfcf" stroke="#cfcfcf" stroke-width="1.51"/><path d="M-117,-277L-241,-139L14,-199Z" fill="#cccccc" stroke="#cccccc" stroke-width="1.51"/><path d="M-293,493L-327,703L-140,733Z" fill="#dbdbdb" stroke="#dbdbdb" stroke-width="1.51"/><path d="M-140,733L-380,942L92,729Z" fill="#dbdbdb" stroke="#dbdbdb" stroke-width="1.51"/><path d="M-400,26L-327,703L-293,493Z" fill="#dddddd" stroke="#dddddd" stroke-width="1.51"/><path d="M-306,155L-400,26L-293,493Z" fill="#dadada" stroke="#dadada" stroke-width="1.51"/><path d="M-241,-139L-400,26L-134,-9Z" fill="#cccccc" stroke="#cccccc" stroke-width="1.51"/><path d="M-117,-277L-400,26L-241,-139Z" fill="#cccccc" stroke="#cccccc" stroke-width="1.51"/><path d="M-327,703L-380,942L-140,733Z" fill="#dbdbdb" stroke="#dbdbdb" stroke-width="1.51"/><path d="M408,921L-380,942L729,925Z" fill="#dfdfdf" stroke="#dfdfdf" stroke-width="1.51"/><path d="M729,925L-380,942L2422,903Z" fill="#eaeaea" stroke="#eaeaea" stroke-width="1.51"/><path d="M-400,26L-380,942L-327,703Z" fill="#dcdcdc" stroke="#dcdcdc" stroke-width="1.51"/></svg>