<svg xmlns="http://www.w3.org/2000/svg" width="2400" height="600"><path d="M1372,213L1581,384L1890,100Z" fill="#6da5d0" stroke="#6da5d0" stroke-width="1.51"/><path d="M1890,100L1441,-77L1372,213Z" fill="#94b9dd" stroke="#94b9dd" stroke-width="1.51"/><path d="M1447,-520L1364,-347L1441,-77Z" fill="#a9c9e5" stroke="#a9c9e5" stroke-width="1.51"/><path d="M1441,-77L907,87L1372,213Z" fill="#a5cae6" stroke="#a5cae6" stroke-width="1.51"/><path d="M1364,-347L1304,-376L1441,-77Z" fill="#abcbe6" stroke="#abcbe6" stroke-width="1.51"/><path d="M1890,100L1963,-543L1441,-77Z" fill="#9bb5db" stroke="#9bb5db" stroke-width="1.51"/><path d="M1364,-347L1447,-520L1304,-376Z" fill="#abcbe6" stroke="#abcbe6" stroke-width="1.51"/><path d="M1963,-543L1447,-520L1441,-77Z" fill="#a0bedf" stroke="#a0bedf" stroke-width="1.51"/><path d="M1304,-376L907,87L1441,-77Z" fill="#b4d3ea" stroke="#b4d3ea" stroke-width="1.51"/><path d="M1344,894L1564,898L1581,384Z" fill="#295f97" stroke="#295f97" stroke-width="1.51"/><path d="M2138,-173L1963,-543L1890,100Z" fill="#94a7d2" stroke="#94a7d2" stroke-width="1.51"/><path d="M1581,384L2106,846L1890,100Z" fill="#216fb3" stroke="#216fb3" stroke-width="1.51"/><path d="M1890,100L2483,422L2138,-173Z" fill="#7b91c1" stroke="#7b91c1" stroke-width="1.51"/><path d="M1344,894L1581,384L1372,213Z" fill="#357ab7" stroke="#357ab7" stroke-width="1.51"/><path d="M642,601L1344,894L1372,213Z" fill="#4a76ab" stroke="#4a76ab" stroke-width="1.51"/><path d="M1856,977L2106,846L1581,384Z" fill="#144d8d" stroke="#144d8d" stroke-width="1.51"/><path d="M1424,1184L1856,977L1564,898Z" fill="#225994" stroke="#225994" stroke-width="1.51"/><path d="M1564,898L1856,977L1581,384Z" fill="#1f5693" stroke="#1f5693" stroke-width="1.51"/><path d="M2106,846L2483,422L1890,100Z" fill="#165ca2" stroke="#165ca2" stroke-width="1.51"/><path d="M2138,-173L2418,-394L1963,-543Z" fill="#8f9dc7" stroke="#8f9dc7" stroke-width="1.51"/><path d="M907,87L642,601L1372,213Z" fill="#7fb8da" stroke="#7fb8da" stroke-width="1.51"/><path d="M812,-407L712,78L907,87Z" fill="#d1e5f2" stroke="#d1e5f2" stroke-width="1.51"/><path d="M812,-407L907,87L1304,-376Z" fill="#c3ddee" stroke="#c3ddee" stroke-width="1.51"/><path d="M2483,422L2507,-114L2138,-173Z" fill="#808bb3" stroke="#808bb3" stroke-width="1.51"/><path d="M2507,-114L2418,-394L2138,-173Z" fill="#8891b7" stroke="#8891b7" stroke-width="1.51"/><path d="M1447,-520L812,-407L1304,-376Z" fill="#b5d4eb" stroke="#b5d4eb" stroke-width="1.51"/><path d="M2106,846L2354,909L2483,422Z" fill="#093472" stroke="#093472" stroke-width="1.51"/><path d="M1856,977L2354,909L2106,846Z" fill="#094083" stroke="#094083" stroke-width="1.51"/><path d="M1344,894L1424,1184L1564,898Z" fill="#2e6199" stroke="#2e6199" stroke-width="1.51"/><path d="M1856,977L2520,1354L2354,909Z" fill="#093877" stroke="#093877" stroke-width="1.51"/><path d="M1074,1361L1424,1184L1344,894Z" fill="#3a689d" stroke="#3a689d" stroke-width="1.51"/><path d="M712,78L642,601L907,87Z" fill="#9ec8e3" stroke="#9ec8e3" stroke-width="1.51"/><path d="M2507,-114L2892,-461L2418,-394Z" fill="#878eb3" stroke="#878eb3" stroke-width="1.51"/><path d="M2483,422L2831,-86L2507,-114Z" fill="#7a87af" stroke="#7a87af" stroke-width="1.51"/><path d="M3115,157L2831,-86L2483,422Z" fill="#6b7faa" stroke="#6b7faa" stroke-width="1.51"/><path d="M642,601L718,955L1344,894Z" fill="#5a78a5" stroke="#5a78a5" stroke-width="1.51"/><path d="M1424,1184L2520,1354L1856,977Z" fill="#11498a" stroke="#11498a" stroke-width="1.51"/><path d="M718,955L1074,1361L1344,894Z" fill="#4d72a2" stroke="#4d72a2" stroke-width="1.51"/><path d="M2418,-394L2892,-461L1963,-543Z" fill="#878eb3" stroke="#878eb3" stroke-width="1.51"/><path d="M2831,-86L2892,-461L2507,-114Z" fill="#878eb3" stroke="#878eb3" stroke-width="1.51"/><path d="M712,78L124,383L642,601Z" fill="#94bdde" stroke="#94bdde" stroke-width="1.51"/><path d="M812,-407L249,-346L712,78Z" fill="#dfebf7" stroke="#dfebf7" stroke-width="1.51"/><path d="M1447,-520L438,-667L812,-407Z" fill="#cbe2f0" stroke="#cbe2f0" stroke-width="1.51"/><path d="M1963,-543L438,-667L1447,-520Z" fill="#b0d0e9" stroke="#b0d0e9" stroke-width="1.51"/><path d="M438,-667L249,-346L812,-407Z" fill="#e3edf9" stroke="#e3edf9" stroke-width="1.51"/><path d="M642,601L161,691L718,955Z" fill="#7282ac" stroke="#7282ac" stroke-width="1.51"/><path d="M2831,-86L3115,157L2892,-461Z" fill="#878eb3" stroke="#878eb3" stroke-width="1.51"/><path d="M3066,570L3115,157L2483,422Z" fill="#275d96" stroke="#275d96" stroke-width="1.51"/><path d="M2354,909L3066,570L2483,422Z" fill="#08306b" stroke="#08306b" stroke-width="1.51"/><path d="M718,955L399,1377L1074,1361Z" fill="#667da8" stroke="#667da8" stroke-width="1.51"/><path d="M249,-346L124,383L712,78Z" fill="#e2edf8" stroke="#e2edf8" stroke-width="1.51"/><path d="M2354,909L3023,1355L3066,570Z" fill="#08306b" stroke="#08306b" stroke-width="1.51"/><path d="M1074,1361L2520,1354L1424,1184Z" fill="#1f5693" stroke="#1f5693" stroke-width="1.51"/><path d="M124,383L161,691L642,601Z" fill="#8091be" stroke="#8091be" stroke-width="1.51"/><path d="M161,691L399,1377L718,955Z" fill="#7584ae" stroke="#7584ae" stroke-width="1.51"/><path d="M1074,1361L399,1377L2520,1354Z" fill="#36669c" stroke="#36669c" stroke-width="1.51"/><path d="M249,-346L-138,-206L124,383Z" fill="#f4f9fe" stroke="#f4f9fe" stroke-width="1.51"/><path d="M124,383L-171,330L161,691Z" fill="#96aed7" stroke="#96aed7" stroke-width="1.51"/><path d="M-231,-360L-138,-206L249,-346Z" fill="#f7fbff" stroke="#f7fbff" stroke-width="1.51"/><path d="M161,691L-127,1130L399,1377Z" fill="#818bb1" stroke="#818bb1" stroke-width="1.51"/><path d="M-138,-206L-171,330L124,383Z" fill="#dae9f5" stroke="#dae9f5" stroke-width="1.51"/><path d="M2520,1354L3023,1355L2354,909Z" fill="#08306b" stroke="#08306b" stroke-width="1.51"/><path d="M3066,570L3023,1355L3115,157Z" fill="#08306b" stroke="#08306b" stroke-width="1.51"/><path d="M399,1377L3023,1355L2520,1354Z" fill="#0f4688" stroke="#0f4688" stroke-width="1.51"/><path d="M-138,-206L-516,227L-171,330Z" fill="#e4eef9" stroke="#e4eef9" stroke-width="1.51"/><path d="M438,-667L-231,-360L249,-346Z" fill="#f1f7fd" stroke="#f1f7fd" stroke-width="1.51"/><path d="M-489,903L-182,842L-171,330Z" fill="#878eb3" stroke="#878eb3" stroke-width="1.51"/><path d="M-171,330L-182,842L161,691Z" fill="#878eb3" stroke="#878eb3" stroke-width="1.51"/><path d="M-182,842L-127,1130L161,691Z" fill="#878eb3" stroke="#878eb3" stroke-width="1.51"/><path d="M-231,-360L-386,-362L-138,-206Z" fill="#f7fbff" stroke="#f7fbff" stroke-width="1.51"/><path d="M438,-667L-386,-362L-231,-360Z" fill="#f7fbff" stroke="#f7fbff" stroke-width="1.51"/><path d="M-182,842L-489,903L-127,1130Z" fill="#878eb3" stroke="#878eb3" stroke-width="1.51"/><path d="M-704,-31L-516,227L-138,-206Z" fill="#f7fbff" stroke="#f7fbff" stroke-width="1.51"/><path d="M-516,227L-489,903L-171,330Z" fill="#96aad4" stroke="#96aad4" stroke-width="1.51"/><path d="M-386,-362L-704,-31L-138,-206Z" fill="#f7fbff" stroke="#f7fbff" stroke-width="1.51"/><path d="M-516,227L-704,-31L-489,903Z" fill="#a6c7e4" stroke="#a6c7e4" stroke-width="1.51"/><path d="M-704,-31L-558,1322L-489,903Z" fill="#878eb3" stroke="#878eb3" stroke-width="1.51"/><path d="M-489,903L-558,1322L-127,1130Z" fill="#878eb3" stroke="#878eb3" stroke-width="1.51"/><path d="M-127,1130L-558,1322L399,1377Z" fill="#878eb3" stroke="#878eb3" stroke-width="1.51"/></svg>